# xmcd CD database file
#
# Track frame offsets:
#	150
#	3302
#	33816
#	57467
#	80805
#	118366
#	142676
#	168482
#	194930
#	231795
#	268009
#	294146
#
# Disc length: 4469 seconds
#
# Revision: 0
# Processed by: cddbd v1.5.1PL0 Copyright (c) Steve Scherf et al.
# Submitted via: CDex 1.51
#
DISCID=aa11730c
DTITLE=Michael Allen Harrison - Millenium Extravaganza
DYEAR=2000
DGENRE=New Age
TTITLE0=Introduction
TTITLE1=Standing Alone
TTITLE2=Matter of Time
TTITLE3=Transitions
TTITLE4=Summertime
TTITLE5=On the Roof
TTITLE6=I Breathe
TTITLE7=Remembrance
TTITLE8=Pachelbel's Canon
TTITLE9=Best of Every Moment
TTITLE10=Gadget Guy
TTITLE11=Spring
EXTD=YEAR: 2000
EXTT0=
EXTT1=
EXTT2=
EXTT3=
EXTT4=
EXTT5=
EXTT6=
EXTT7=
EXTT8=
EXTT9=
EXTT10=
EXTT11=
PLAYORDER=
